<?xml version="1.0" encoding="utf-8"?>
<!-- Generator: Adobe Illustrator 27.2.0, SVG Export Plug-In . SVG Version: 6.00 Build 0)  -->
<svg version="1.1" baseProfile="basic" id="Layer_1"
	 xmlns="http://www.w3.org/2000/svg" xmlns:xlink="http://www.w3.org/1999/xlink" x="0px" y="0px" viewBox="0 0 100 80.3"
	 xml:space="preserve">
<style type="text/css">
	.st0{fill:#333333;}
</style>
<path class="st0" d="M88.4,14H74.6l-3.4-6.8c-2-4-6-6.5-10.5-6.5H39.2c-4.4,0-8.5,2.4-10.5,6.5L25.3,14H11.7C5.3,14,0,19.3,0,25.7
	v40.1c0,6.4,5.3,11.6,11.6,11.6h76.7c6.4,0,11.6-5.3,11.6-11.6V25.8C100,19.3,94.8,14,88.4,14L88.4,14z M50,67.3
	c-12.8,0-23.2-10.7-23.2-23.7c0-13.1,10.4-23.9,23.2-23.9c12.8,0,23.2,10.7,23.2,23.7S62.8,67.3,50,67.3z"/>
<path class="st0" d="M50,25.4c-9.7,0-17.5,8.1-17.5,18S40.3,61.6,50,61.6s17.5-8.1,17.5-18S59.7,25.4,50,25.4z M50,54.8
	c-6.1,0-10.9-5.1-10.9-11.2S44,32.3,50,32.3s10.9,5.1,10.9,11.2S56.1,54.8,50,54.8z"/>
</svg>
