<svg height="30.000000000000114" overflow="visible" viewBox="0 0 35  30.000000000000114" width="35" xmlns="http://www.w3.org/2000/svg"><g><defs><path id="path-16758770897787426" d="M34.999999999999794 3.6848635235731857 C34.999999999999794 3.6848635235731857 18.46071044133466 3.6848635235731857 18.46071044133466 3.6848635235731857 C18.46071044133466 3.6848635235731857 18.46071044133466 9.342431761786562 18.46071044133466 9.342431761786562 C18.46071044133466 9.342431761786562 29.273412271259236 9.342431761786562 29.273412271259236 9.342431761786562 C29.273412271259236 9.342431761786562 29.273412271259236 20.322580645161207 29.273412271259236 20.322580645161207 C29.273412271259236 20.322580645161207 18.46071044133466 20.322580645161207 18.46071044133466 20.322580645161207 C18.46071044133466 20.322580645161207 18.46071044133466 25.942928039702124 18.46071044133466 25.942928039702124 C18.46071044133466 25.942928039702124 18.46071044133466 29.999999999999872 18.46071044133466 29.999999999999872 C18.46071044133466 29.999999999999872 24.52637244348747 25.942928039702124 24.52637244348747 25.942928039702124 C24.52637244348747 25.942928039702124 34.999999999999794 25.942928039702124 34.999999999999794 25.942928039702124 C34.999999999999794 25.942928039702124 34.999999999999794 3.6848635235731857 34.999999999999794 3.6848635235731857 Z" vector-effect="non-scaling-stroke"/></defs> <path style="stroke-width: 0; stroke-linecap: butt; stroke-linejoin: miter; fill: rgb(255, 255, 255);" d="M35 3.6848635235733127 C35 3.6848635235733127 18.460710441334868 3.6848635235733127 18.460710441334868 3.6848635235733127 C18.460710441334868 3.6848635235733127 18.460710441334868 9.342431761786685 18.460710441334868 9.342431761786685 C18.460710441334868 9.342431761786685 29.273412271259446 9.342431761786685 29.273412271259446 9.342431761786685 C29.273412271259446 9.342431761786685 29.273412271259446 20.32258064516131 29.273412271259446 20.32258064516131 C29.273412271259446 20.32258064516131 18.460710441334868 20.32258064516131 18.460710441334868 20.32258064516131 C18.460710441334868 20.32258064516131 18.460710441334868 25.942928039702224 18.460710441334868 25.942928039702224 C18.460710441334868 25.942928039702224 18.460710441334868 30 18.460710441334868 30 C18.460710441334868 30 24.526372443487674 25.942928039702224 24.526372443487674 25.942928039702224 C24.526372443487674 25.942928039702224 35 25.942928039702224 35 25.942928039702224 C35 25.942928039702224 35 3.6848635235733127 35 3.6848635235733127 Z" vector-effect="non-scaling-stroke"/></g><g><defs><path id="path-16758770897787424" d="M0 0 C0 0 0 22.295285359801397 0 22.295285359801397 C0 22.295285359801397 16.539289558665132 22.295285359801397 16.539289558665132 22.295285359801397 C16.539289558665132 22.295285359801397 16.539289558665132 17.866004962779083 16.539289558665132 17.866004962779083 C16.539289558665132 17.866004962779083 16.539289558665132 16.63771712158802 16.539289558665132 16.63771712158802 C16.539289558665132 16.63771712158802 5.726587728740544 16.63771712158802 5.726587728740544 16.63771712158802 C5.726587728740544 16.63771712158802 5.726587728740544 5.6575682382133765 5.726587728740544 5.6575682382133765 C5.726587728740544 5.6575682382133765 16.539289558665132 5.6575682382133765 16.539289558665132 5.6575682382133765 C16.539289558665132 5.6575682382133765 16.539289558665132 4.429280397022315 16.539289558665132 4.429280397022315 C16.539289558665132 4.429280397022315 16.539289558665132 0 16.539289558665132 0 C16.539289558665132 0 0 0 0 0 Z" vector-effect="non-scaling-stroke"/></defs> <path style="stroke-width: 0; stroke-linecap: butt; stroke-linejoin: miter; fill: rgb(255, 255, 255);" d="M0 0 C0 0 0 22.295285359801397 0 22.295285359801397 C0 22.295285359801397 16.539289558665132 22.295285359801397 16.539289558665132 22.295285359801397 C16.539289558665132 22.295285359801397 16.539289558665132 17.866004962779073 16.539289558665132 17.866004962779073 C16.539289558665132 17.866004962779073 16.539289558665132 16.637717121588025 16.539289558665132 16.637717121588025 C16.539289558665132 16.637717121588025 5.726587728740554 16.637717121588025 5.726587728740554 16.637717121588025 C5.726587728740554 16.637717121588025 5.726587728740554 5.657568238213372 5.726587728740554 5.657568238213372 C5.726587728740554 5.657568238213372 16.539289558665132 5.657568238213372 16.539289558665132 5.657568238213372 C16.539289558665132 5.657568238213372 16.539289558665132 4.429280397022325 16.539289558665132 4.429280397022325 C16.539289558665132 4.429280397022325 16.539289558665132 0 16.539289558665132 0 C16.539289558665132 0 0 0 0 0 Z" vector-effect="non-scaling-stroke"/></g></svg>