<svg height="18" overflow="visible" viewBox="0 0 18 18" width="18" xmlns="http://www.w3.org/2000/svg"><g><defs><path id="path-1681316798779159" d="M9.941422594142258 0 C9.941422594142258 0 8.133891213389116 0 8.133891213389116 0 C7.682008368200833 0 7.305439330543928 0.37500000000000083 7.305439330543928 0.8250000000000016 C7.305439330543928 0.8250000000000016 7.305439330543928 6.975000000000014 7.305439330543928 6.975000000000014 C7.305439330543928 6.975000000000014 4.06694560669456 6.975000000000014 4.06694560669456 6.975000000000014 C3.916317991631798 6.975000000000015 3.765690376569037 7.125000000000015 3.765690376569037 7.3500000000000165 C3.765690376569037 7.425000000000015 3.765690376569037 7.500000000000015 3.8410041841004166 7.575000000000019 C3.8410041841004166 7.575000000000019 8.35983263598326 13.05000000000003 8.35983263598326 13.05000000000003 C8.661087866108785 13.425000000000027 9.18828451882845 13.425000000000027 9.564853556485353 13.200000000000026 C9.640167364016735 13.200000000000026 9.640167364016735 13.125000000000025 9.715481171548113 13.05000000000003 C9.715481171548113 13.05000000000003 14.234309623430958 7.575000000000019 14.234309623430958 7.575000000000019 C14.384937238493722 7.425000000000017 14.30962343096234 7.200000000000016 14.158995815899576 7.125000000000016 C14.083682008368195 7.050000000000016 14.008368200836813 7.050000000000016 13.933054393305433 7.050000000000016 C13.933054393305433 7.050000000000016 10.769874476987443 7.050000000000016 10.769874476987443 7.050000000000016 C10.769874476987443 7.050000000000016 10.769874476987443 0.8250000000000016 10.769874476987443 0.8250000000000016 C10.769874476987447 0.37500000000000083 10.393305439330543 0 9.941422594142258 0 Z" vector-effect="non-scaling-stroke"/></defs> <path style="stroke-width: 0; stroke-linecap: butt; stroke-linejoin: miter; fill: rgb(51, 51, 51);" d="M9.941422594142182 0 C9.941422594142182 0 8.133891213389006 0 8.133891213389006 0 C7.682008368200741 0 7.305439330543777 0.375 7.305439330543777 0.8250000000000455 C7.305439330543777 0.8250000000000455 7.305439330543777 6.975000000000023 7.305439330543777 6.975000000000023 C7.305439330543777 6.975000000000023 4.066945606694389 6.975000000000023 4.066945606694389 6.975000000000023 C3.916317991631672 6.975000000000023 3.765690376568955 7.125 3.765690376568955 7.350000000000023 C3.765690376568955 7.425000000000068 3.765690376568955 7.5 3.8410041841002567 7.5750000000000455 C3.8410041841002567 7.5750000000000455 8.359832635983139 13.050000000000068 8.359832635983139 13.050000000000068 C8.661087866108687 13.425000000000068 9.188284518828368 13.425000000000068 9.564853556485218 13.200000000000045 C9.640167364016634 13.200000000000045 9.640167364016634 13.125 9.71548117154805 13.050000000000068 C9.71548117154805 13.050000000000068 14.234309623430818 7.5750000000000455 14.234309623430818 7.5750000000000455 C14.384937238493649 7.425000000000068 14.309623430962233 7.2000000000000455 14.158995815899516 7.125 C14.0836820083681 7.050000000000068 14.008368200836685 7.050000000000068 13.93305439330527 7.050000000000068 C13.93305439330527 7.050000000000068 10.769874476987297 7.050000000000068 10.769874476987297 7.050000000000068 C10.769874476987297 7.050000000000068 10.769874476987297 0.8250000000000455 10.769874476987297 0.8250000000000455 C10.769874476987297 0.375 10.393305439330447 0 9.941422594142182 0 Z" vector-effect="non-scaling-stroke"/></g><g><defs><path id="path-1681316798779157" d="M1.2803347280334727 15.374999999999337 C1.2803347280334727 15.374999999999337 16.719665271966523 15.374999999999337 16.719665271966523 15.374999999999337 C17.472803347280333 15.374999999999337 18 15.97499999999931 18 16.649999999999284 C18 16.649999999999284 18 16.649999999999284 18 16.649999999999284 C18 16.649999999999284 18 16.72499999999928 18 16.72499999999928 C18 17.474999999999252 17.397489539748953 17.999999999999226 16.719665271966523 17.999999999999226 C16.719665271966523 17.999999999999226 16.719665271966523 17.999999999999226 16.719665271966523 17.999999999999226 C16.719665271966523 17.999999999999226 1.2803347280334727 17.999999999999226 1.2803347280334727 17.999999999999226 C0.5271966527196652 17.999999999999226 0 17.39999999999925 0 16.72499999999928 C0 16.72499999999928 0 16.72499999999928 0 16.72499999999928 C0 16.72499999999928 0 16.649999999999284 0 16.649999999999284 C0 15.97499999999931 0.602510460251046 15.374999999999337 1.2803347280334727 15.374999999999337 C1.2803347280334727 15.374999999999337 1.2803347280334727 15.374999999999337 1.2803347280334727 15.374999999999337 Z" vector-effect="non-scaling-stroke"/></defs> <path style="stroke-width: 0; stroke-linecap: butt; stroke-linejoin: miter; fill: rgb(51, 51, 51);" d="M1.2803347280334947 15.375000000000114 C1.2803347280334947 15.375000000000114 16.719665271966505 15.375000000000114 16.719665271966505 15.375000000000114 C17.47280334728032 15.375000000000114 18 15.975000000000136 18 16.65000000000009 C18 16.65000000000009 18 16.65000000000009 18 16.65000000000009 C18 16.65000000000009 18 16.725000000000023 18 16.725000000000023 C18 17.475000000000023 17.397489539748904 18 16.719665271966505 18 C16.719665271966505 18 16.719665271966505 18 16.719665271966505 18 C16.719665271966505 18 1.2803347280334947 18 1.2803347280334947 18 C0.527196652719681 18 0 17.40000000000009 0 16.725000000000023 C0 16.725000000000023 0 16.725000000000023 0 16.725000000000023 C0 16.725000000000023 0 16.65000000000009 0 16.65000000000009 C0 15.975000000000136 0.6025104602510964 15.375000000000114 1.2803347280334947 15.375000000000114 C1.2803347280334947 15.375000000000114 1.2803347280334947 15.375000000000114 1.2803347280334947 15.375000000000114 Z" vector-effect="non-scaling-stroke"/></g></svg>