<?xml version="1.0" encoding="utf-8"?>
<!-- Generator: Adobe Illustrator 27.2.0, SVG Export Plug-In . SVG Version: 6.00 Build 0)  -->
<svg version="1.1" baseProfile="basic" id="Layer_1"
	 xmlns="http://www.w3.org/2000/svg" xmlns:xlink="http://www.w3.org/1999/xlink" x="0px" y="0px" viewBox="0 0 100 80.3"
	 xml:space="preserve">
<style type="text/css">
	.st0{fill:#333333;}
</style>
<g>
	<path class="st0" d="M67.4,44.2L54.4,59c-0.6,0.7-1.7,0.7-2.3,0l-3.9-4.3c-2.5-2.8-6.9-2.8-9.5,0L33.9,60c-0.8,0.9-1.4,2.2-1.4,3.5
		v5.5c0,0.6,0.5,1.1,1.1,1.1h55.1c0.6,0,1.1-0.5,1.1-1.1v-8.8c0-1.3-0.4-2.4-1.3-3.4L77.6,44.2C74.9,41.1,70.1,41.1,67.4,44.2
		L67.4,44.2z"/>
	<path class="st0" d="M88.7,19.3H78.3L77,9.8c-0.8-6.1-6.5-10.4-12.7-9.7L9.8,7.6C3.7,8.4-0.7,14.1,0.1,20.3l5.2,38
		c0.4,2.9,1.9,5.6,4.3,7.5c2,1.5,4.4,2.3,6.8,2.3c0.5,0,1.1,0,1.6-0.1l4.4-0.6V69c0,6.2,5.1,11.3,11.3,11.3h55.1
		c6.2,0,11.3-5.1,11.3-11.3V30.6C100,24.4,94.9,19.3,88.7,19.3L88.7,19.3z M22.4,30.6V61l-5.3,0.7c-2.8,0.4-5.4-1.6-5.8-4.4l-5.2-38
		c-0.4-2.8,1.6-5.4,4.4-5.8l54.5-7.5h0.7c2.5,0,4.7,1.9,5.1,4.4l1.3,8.8l-38.5,0C27.5,19.4,22.4,24.4,22.4,30.6L22.4,30.6z
		 M93.8,68.9c0,2.8-2.3,5.1-5.1,5.1H33.7c-2.8,0-5.1-2.3-5.1-5.1V30.6c0-2.8,2.3-5.1,5.1-5.1h55.1c2.8,0,5.1,2.3,5.1,5.1V68.9z"/>
	<path class="st0" d="M49.6,39c0,3.4-2.7,6.1-6.1,6.1c-3.4,0-6.1-2.7-6.1-6.1c0-3.4,2.7-6.1,6.1-6.1C46.8,32.9,49.6,35.7,49.6,39"/>
</g>
</svg>
