<svg version="1.2" xmlns="http://www.w3.org/2000/svg" xmlns:xlink="http://www.w3.org/1999/xlink" overflow="visible" preserveAspectRatio="none" viewBox="0 0 256 256" width="20" height="20"><path fill="#343434" d="M218.593,37.481c12.482,12.483,21.828,26.6,28.037,42.286c6.208,15.718,9.28,31.763,9.28,48.233 c0,16.438-3.072,32.515-9.28,48.232c-6.209,15.686-15.555,29.77-28.037,42.286c-12.483,12.483-26.601,21.861-42.352,28.104 c-15.768,6.241-31.845,9.378-48.217,9.378c-16.404,0-32.481-3.137-48.233-9.378c-15.75-6.242-29.868-15.62-42.383-28.104 c-12.483-12.517-21.829-26.601-28.038-42.286C3.194,160.515,0.09,144.438,0.09,128c0-16.47,3.137-32.547,9.378-48.298 c6.242-15.751,15.555-29.802,27.94-42.22C49.924,24.999,64.041,15.62,79.792,9.379C95.543,3.104,111.621,0,128.024,0 c16.372,0,32.449,3.104,48.217,9.379C191.992,15.62,206.109,24.999,218.593,37.481z M192.972,89.244 c2.419-2.484,2.419-4.967,0-7.549l-18.756-18.398c-2.68-2.68-5.165-2.68-7.517,0l-38.936,39.083L92.209,66.958 c-1.078-1.046-2.287-1.602-3.692-1.602c-1.373,0-2.68,0.556-3.856,1.602L67.047,85.061c-2.68,2.483-2.68,4.967,0,7.516 l35.096,35.096l-38.756,39.083c-1.079,1.079-1.634,2.287-1.634,3.692s0.555,2.681,1.634,3.824l18.398,18.594 c1.079,1.078,2.32,1.634,3.758,1.698c1.471,0.033,2.712-0.521,3.791-1.698l39.083-38.92l35.08,35.423 c1.047,1.046,2.288,1.569,3.791,1.569c1.438,0,2.68-0.523,3.726-1.569l18.104-18.103c2.483-2.484,2.483-4.968,0-7.55l-35.569-35.063 L192.972,89.244L192.972,89.244z" style="fill: rgb(51, 51, 51);" vector-effect="non-scaling-stroke"/></svg>